<svg id="Layer_1" data-name="Layer 1" xmlns="http://www.w3.org/2000/svg" viewBox="0 0 1920 1080">
  <defs>
    <style>.cls-1{fill:#e4ecf5;}.cls-2{fill:#8aace2;}.cls-3{fill:#fcee21;}.cls-4{fill:red;}.cls-5{fill:#f15a24;}.cls-6{fill:#ed1e79;}.cls-7{fill:aqua;}.cls-8{fill:#0089d4;}</style>
  </defs>
  <title>bg</title>
  <g id="bg">
    <rect class="cls-1" width="1920" height="1080" />
  </g>
  <circle class="cls-2" cx="125" cy="138" r="8" />
  <circle class="cls-2" cx="367" cy="138" r="8" />
  <circle class="cls-2" cx="155" cy="138" r="8" />
  <circle class="cls-2" cx="185" cy="138" r="8" />
  <circle class="cls-2" cx="211" cy="138" r="8" />
  <circle class="cls-2" cx="243" cy="138" r="8" />
  <circle class="cls-2" cx="280" cy="138" r="8" />
  <circle class="cls-2" cx="332" cy="138" r="8" />
  <circle class="cls-2" cx="122" cy="167" r="8" />
  <circle class="cls-2" cx="364" cy="167" r="8" />
  <circle class="cls-2" cx="152" cy="167" r="8" />
  <circle class="cls-2" cx="182" cy="167" r="8" />
  <circle class="cls-2" cx="208" cy="167" r="8" />
  <circle class="cls-2" cx="240" cy="167" r="8" />
  <circle class="cls-2" cx="277" cy="167" r="8" />
  <circle class="cls-2" cx="329" cy="167" r="8" />
  <circle class="cls-2" cx="120" cy="206" r="8" />
  <circle class="cls-2" cx="362" cy="206" r="8" />
  <circle class="cls-2" cx="150" cy="206" r="8" />
  <circle class="cls-2" cx="180" cy="206" r="8" />
  <circle class="cls-2" cx="206" cy="206" r="8" />
  <circle class="cls-2" cx="238" cy="206" r="8" />
  <circle class="cls-2" cx="275" cy="206" r="8" />
  <circle class="cls-2" cx="327" cy="206" r="8" />
  <circle class="cls-2" cx="117" cy="235" r="8" />
  <circle class="cls-2" cx="359" cy="235" r="8" />
  <circle class="cls-2" cx="147" cy="235" r="8" />
  <circle class="cls-2" cx="177" cy="235" r="8" />
  <circle class="cls-2" cx="203" cy="235" r="8" />
  <circle class="cls-2" cx="235" cy="235" r="8" />
  <circle class="cls-2" cx="272" cy="235" r="8" />
  <circle class="cls-2" cx="324" cy="235" r="8" />
  <circle class="cls-3" cx="1538.5" cy="162.5" r="24.5" />
  <circle class="cls-4" cx="130.5" cy="393.5" r="21.5" />
  <circle class="cls-5" cx="1390.5" cy="558.5" r="49.5" />
  <circle class="cls-6" cx="275" cy="803" r="77" />
  <circle class="cls-7" cx="930" cy="795" r="8" />
  <circle class="cls-7" cx="1172" cy="795" r="8" />
  <circle class="cls-7" cx="960" cy="795" r="8" />
  <circle class="cls-7" cx="990" cy="795" r="8" />
  <circle class="cls-7" cx="1016" cy="795" r="8" />
  <circle class="cls-7" cx="1048" cy="795" r="8" />
  <circle class="cls-7" cx="1085" cy="795" r="8" />
  <circle class="cls-7" cx="1137" cy="795" r="8" />
  <circle class="cls-7" cx="927" cy="824" r="8" />
  <circle class="cls-7" cx="1169" cy="824" r="8" />
  <circle class="cls-7" cx="957" cy="824" r="8" />
  <circle class="cls-7" cx="987" cy="824" r="8" />
  <circle class="cls-7" cx="1013" cy="824" r="8" />
  <circle class="cls-7" cx="1045" cy="824" r="8" />
  <circle class="cls-7" cx="1082" cy="824" r="8" />
  <circle class="cls-7" cx="1134" cy="824" r="8" />
  <circle class="cls-7" cx="925" cy="863" r="8" />
  <circle class="cls-7" cx="1167" cy="863" r="8" />
  <circle class="cls-7" cx="955" cy="863" r="8" />
  <circle class="cls-7" cx="985" cy="863" r="8" />
  <circle class="cls-7" cx="1011" cy="863" r="8" />
  <circle class="cls-7" cx="1043" cy="863" r="8" />
  <circle class="cls-7" cx="1080" cy="863" r="8" />
  <circle class="cls-7" cx="1132" cy="863" r="8" />
  <circle class="cls-7" cx="922" cy="892" r="8" />
  <circle class="cls-7" cx="1164" cy="892" r="8" />
  <circle class="cls-7" cx="952" cy="892" r="8" />
  <circle class="cls-7" cx="982" cy="892" r="8" />
  <circle class="cls-7" cx="1008" cy="892" r="8" />
  <circle class="cls-7" cx="1040" cy="892" r="8" />
  <circle class="cls-7" cx="1077" cy="892" r="8" />
  <circle class="cls-7" cx="1129" cy="892" r="8" />
  <circle class="cls-7" cx="943" cy="669" r="8" />
  <circle class="cls-7" cx="1190" cy="669" r="8" />
  <circle class="cls-7" cx="973" cy="669" r="8" />
  <circle class="cls-7" cx="1003" cy="669" r="8" />
  <circle class="cls-7" cx="1029" cy="669" r="8" />
  <circle class="cls-7" cx="1061" cy="669" r="8" />
  <circle class="cls-7" cx="1098" cy="669" r="8" />
  <circle class="cls-7" cx="1150" cy="669" r="8" />
  <circle class="cls-7" cx="940" cy="698" r="8" />
  <circle class="cls-7" cx="1182" cy="698" r="8" />
  <circle class="cls-7" cx="970" cy="698" r="8" />
  <circle class="cls-7" cx="1000" cy="698" r="8" />
  <circle class="cls-7" cx="1026" cy="698" r="8" />
  <circle class="cls-7" cx="1058" cy="698" r="8" />
  <circle class="cls-7" cx="1095" cy="698" r="8" />
  <circle class="cls-7" cx="1147" cy="698" r="8" />
  <circle class="cls-7" cx="938" cy="737" r="8" />
  <circle class="cls-7" cx="1180" cy="737" r="8" />
  <circle class="cls-7" cx="968" cy="737" r="8" />
  <circle class="cls-7" cx="998" cy="737" r="8" />
  <circle class="cls-7" cx="1024" cy="737" r="8" />
  <circle class="cls-7" cx="1056" cy="737" r="8" />
  <circle class="cls-7" cx="1093" cy="737" r="8" />
  <circle class="cls-7" cx="1145" cy="737" r="8" />
  <circle class="cls-7" cx="935" cy="766" r="8" />
  <circle class="cls-7" cx="1177" cy="766" r="8" />
  <circle class="cls-7" cx="965" cy="766" r="8" />
  <circle class="cls-7" cx="995" cy="766" r="8" />
  <circle class="cls-7" cx="1021" cy="766" r="8" />
  <circle class="cls-7" cx="1053" cy="766" r="8" />
  <circle class="cls-7" cx="1090" cy="766" r="8" />
  <circle class="cls-7" cx="1142" cy="766" r="8" />
  <circle class="cls-8" cx="1476" cy="401" r="8" />
  <circle class="cls-8" cx="1506" cy="401" r="8" />
  <circle class="cls-8" cx="1473" cy="430" r="8" />
  <circle class="cls-8" cx="1503" cy="430" r="8" />
</svg>